<svg width="312" height="41" viewBox="0 0 312 41" fill="none" xmlns="http://www.w3.org/2000/svg">
<path d="M19.3594 3.71484L6.17969 40H0.792969L15.9688 0.1875H19.4414L19.3594 3.71484ZM30.4062 40L17.1992 3.71484L17.1172 0.1875H20.5898L35.8203 40H30.4062ZM29.7227 25.2617V29.582H7.35547V25.2617H29.7227ZM87.7975 0.1875H93.0475V27.1211C93.0475 30.1107 92.3821 32.599 91.0514 34.5859C89.7207 36.5729 87.9524 38.0677 85.7467 39.0703C83.5592 40.0547 81.1803 40.5469 78.61 40.5469C75.9121 40.5469 73.4694 40.0547 71.2819 39.0703C69.1126 38.0677 67.3899 36.5729 66.1139 34.5859C64.8561 32.599 64.2272 30.1107 64.2272 27.1211V0.1875H69.4498V27.1211C69.4498 29.1992 69.8327 30.9128 70.5983 32.2617C71.3639 33.6107 72.4303 34.6133 73.7975 35.2695C75.1829 35.9258 76.7871 36.2539 78.61 36.2539C80.4511 36.2539 82.0553 35.9258 83.4225 35.2695C84.8079 34.6133 85.8834 33.6107 86.6491 32.2617C87.4147 30.9128 87.7975 29.1992 87.7975 27.1211V0.1875ZM136.466 40H128.154L128.208 35.707H136.466C139.31 35.707 141.68 35.1146 143.575 33.9297C145.471 32.7266 146.893 31.0495 147.841 28.8984C148.807 26.7292 149.29 24.1953 149.29 21.2969V18.8633C149.29 16.5846 149.017 14.5612 148.47 12.793C147.923 11.0065 147.121 9.5026 146.064 8.28125C145.006 7.04167 143.712 6.10286 142.181 5.46484C140.668 4.82682 138.927 4.50781 136.958 4.50781H127.99V0.1875H136.958C139.565 0.1875 141.944 0.625 144.095 1.5C146.246 2.35677 148.096 3.60547 149.646 5.24609C151.213 6.86849 152.417 8.83724 153.255 11.1523C154.094 13.4492 154.513 16.0378 154.513 18.918V21.2969C154.513 24.1771 154.094 26.7747 153.255 29.0898C152.417 31.3867 151.204 33.3464 149.618 34.9688C148.051 36.5911 146.155 37.8398 143.931 38.7148C141.725 39.5716 139.237 40 136.466 40ZM130.97 0.1875V40H125.693V0.1875H130.97ZM192.463 0.1875V40H187.185V0.1875H192.463ZM241.651 3.71484L228.471 40H223.085L238.26 0.1875H241.733L241.651 3.71484ZM252.698 40L239.491 3.71484L239.409 0.1875H242.881L258.112 40H252.698ZM252.014 25.2617V29.582H229.647V25.2617H252.014ZM311.948 35.707V40H292.042V35.707H311.948ZM293.081 0.1875V40H287.804V0.1875H293.081Z" fill="#FCFCFC"/>
</svg>
