<svg width="160" height="46" viewBox="0 0 160 46" fill="none" xmlns="http://www.w3.org/2000/svg">
<path fill-rule="evenodd" clip-rule="evenodd" d="M26.6046 3.72426C25.1108 2.23113 22.6895 2.23162 21.1964 3.72537L8.73505 16.1918L8.72443 16.1887L8.68505 16.1929C8.70127 16.2007 8.71719 16.2084 8.73279 16.2162C6.54681 16.4452 5.61933 17.1021 5.60883 17.9457C5.61253 18.2595 5.74128 18.5984 5.97777 18.9502L5.9664 18.9616C7.95368 21.9589 17.7986 25.9128 24.7636 23.2339C19.5436 25.8439 7.25025 26.3612 3.6395 21.2936C2.85536 22.1419 2.52728 23.2567 2.65083 24.328C3.60469 29.5854 14.2689 31.0197 24.9332 23.4024L27.2409 25.7101C24.3693 28.6603 20.1276 45.7968 26.4303 43.1804C26.5798 43.0789 26.7067 42.9881 26.8793 42.8575L27.1602 42.5923C27.144 42.5963 27.1279 42.6001 27.1119 42.6039L43.9919 26.6682C45.5592 25.1885 45.5947 22.7066 44.0702 21.1827L26.6046 3.72426ZM24.7664 8.91755L25.3433 6.60986L25.9202 8.91755L27.651 9.49448L25.9202 10.0714L25.3433 12.3791L24.7664 10.0714L23.0356 9.49448L24.7664 8.91755ZM17.6255 16.4509L18.0101 14.9124L18.3947 16.4509L19.5486 16.8355L18.3947 17.2201L18.0101 18.7586L17.6255 17.2201L16.4717 16.8355L17.6255 16.4509ZM31.0211 29.4278L30.6365 30.9662L29.4827 31.3509L30.6365 31.7355L31.0211 33.2739L31.4057 31.7355L32.5596 31.3509L31.4057 30.9662L31.0211 29.4278Z" fill="#F7F7F8"/>
<path d="M54.898 12.2754H51.3159V28.4386H61.2323V25.2715H54.898V12.2754Z" fill="#F7F7F8"/>
<path d="M61.5745 22.9562C61.5745 26.4073 63.8898 28.7007 67.3845 28.7007C70.8575 28.7007 73.1727 26.4073 73.1727 22.9562C73.1727 19.5051 70.8575 17.1899 67.3845 17.1899C63.8898 17.1899 61.5745 19.5051 61.5745 22.9562ZM64.9601 22.9344C64.9601 21.2962 65.9211 20.2041 67.3845 20.2041C68.8261 20.2041 69.7872 21.2962 69.7872 22.9344C69.7872 24.5944 68.8261 25.6865 67.3845 25.6865C65.9211 25.6865 64.9601 24.5944 64.9601 22.9344Z" fill="#F7F7F8"/>
<path d="M73.7136 22.7815C73.7136 26.0796 75.8542 28.3075 78.8902 28.3075C80.3537 28.3075 81.6205 27.7833 82.2539 26.9315V28.4386C82.2539 29.9457 81.3147 30.9505 79.6547 30.9505C78.1694 30.9505 77.1429 30.2515 77.0773 29.0065H73.67C73.9757 31.9989 76.291 34.0084 79.4581 34.0084C83.1932 34.0084 85.5521 31.5839 85.5521 27.7396V17.5175H82.516L82.3413 18.6314C81.7297 17.7359 80.441 17.1462 78.9558 17.1462C75.8979 17.1462 73.7136 19.4396 73.7136 22.7815ZM77.121 22.6941C77.121 21.1215 78.1695 20.073 79.5018 20.073C81.0526 20.073 82.1884 21.0996 82.1884 22.6941C82.1884 24.2886 81.0746 25.3807 79.5238 25.3807C78.1914 25.3807 77.121 24.2886 77.121 22.6941Z" fill="#F7F7F8"/>
<path d="M86.5326 22.9562C86.5326 26.4073 88.8478 28.7007 92.3426 28.7007C95.8155 28.7007 98.1308 26.4073 98.1308 22.9562C98.1308 19.5051 95.8155 17.1899 92.3426 17.1899C88.8478 17.1899 86.5326 19.5051 86.5326 22.9562ZM89.9181 22.9344C89.9181 21.2962 90.8792 20.2041 92.3426 20.2041C93.7842 20.2041 94.7452 21.2962 94.7452 22.9344C94.7452 24.5944 93.7842 25.6865 92.3426 25.6865C90.8792 25.6865 89.9181 24.5944 89.9181 22.9344Z" fill="#F7F7F8"/>
<path d="M101.031 15.8139C102.079 15.8139 102.931 14.9621 102.931 13.8918C102.931 12.8215 102.079 11.9915 101.031 11.9915C99.9605 11.9915 99.1086 12.8215 99.1086 13.8918C99.1086 14.9621 99.9605 15.8139 101.031 15.8139ZM99.327 28.4387H102.713V17.5176H99.327V28.4387Z" fill="#F7F7F8"/>
<path d="M104.683 33.6809H108.003V27.3467C108.637 28.1767 110.078 28.7446 111.586 28.7446C114.84 28.7446 116.806 26.2546 116.718 22.8035C116.631 19.2869 114.6 17.1682 111.564 17.1682C110.013 17.1682 108.55 17.8453 107.938 18.8501L107.763 17.5177H104.683V33.6809ZM108.069 22.9782C108.069 21.3401 109.161 20.248 110.734 20.248C112.328 20.248 113.333 21.3619 113.333 22.9782C113.333 24.5946 112.328 25.7085 110.734 25.7085C109.161 25.7085 108.069 24.6164 108.069 22.9782Z" fill="#F7F7F8"/>
<path d="M117.077 24.9877C117.164 27.1938 118.912 28.7227 121.664 28.7227C124.307 28.7227 126.142 27.3248 126.142 25.0751C126.142 23.4588 125.18 22.3885 123.389 21.9517L121.445 21.4711C120.746 21.2964 120.31 21.1217 120.31 20.5538C120.31 19.9859 120.768 19.6145 121.445 19.6145C122.21 19.6145 122.712 20.1169 122.69 20.8596H125.727C125.639 18.588 123.914 17.1682 121.511 17.1682C119.086 17.1682 117.274 18.6098 117.274 20.794C117.274 22.2575 118.082 23.4588 120.244 24.0267L122.166 24.529C122.734 24.6819 122.974 24.944 122.974 25.3154C122.974 25.8614 122.472 26.2109 121.62 26.2109C120.637 26.2109 120.113 25.7522 120.113 24.9877H117.077Z" fill="#F7F7F8"/>
<path d="M131.29 28.7226C132.623 28.7226 133.955 28.1111 134.632 27.2155L134.851 28.4387H138.018V17.5176H134.654V23.1966C134.654 24.8347 134.173 25.7303 132.623 25.7303C131.421 25.7303 130.635 25.1842 130.635 23.1529V17.5176H127.271V24.376C127.271 26.9753 128.713 28.7226 131.29 28.7226Z" fill="#F7F7F8"/>
<path d="M143.352 28.4386V22.4757C143.352 20.6409 144.335 20.1167 145.296 20.1167C146.366 20.1167 147.065 20.772 147.065 22.1262V28.4386H150.385V22.4757C150.385 20.6191 151.346 20.0949 152.307 20.0949C153.377 20.0949 154.098 20.7501 154.098 22.1262V28.4386H157.375V21.2962C157.375 18.8062 156.064 17.1462 153.246 17.1462C151.674 17.1462 150.385 17.9107 149.817 19.0901C149.162 17.9107 148.026 17.1462 146.213 17.1462C145.012 17.1462 143.898 17.6922 143.243 18.5659L143.112 17.5175H139.966V28.4386H143.352Z" fill="#F7F7F8"/>
<path fill-rule="evenodd" clip-rule="evenodd" d="M45.2918 5.25122C41.6831 5.25122 38.2608 6.85413 35.9505 9.62643L27.7315 19.4893L32.4775 12.3702L24.5995 15.7465C23.599 16.1753 23.348 17.4788 24.1176 18.2485L26.6528 20.7836L25.3584 22.3369L28.2061 25.1845L29.7593 23.8901L32.2945 26.4253C33.0641 27.1949 34.3677 26.9439 34.7964 25.9435L38.1727 18.0655L31.0537 22.8115L40.9166 14.5924C43.6889 12.2822 45.2918 8.85994 45.2918 5.25122ZM37.4609 13.0823C38.2472 13.8686 39.5221 13.8686 40.3085 13.0823C41.0948 12.2959 41.0948 11.021 40.3085 10.2347C39.5221 9.44835 38.2472 9.44835 37.4609 10.2347C36.6745 11.021 36.6745 12.2959 37.4609 13.0823Z" fill="#F7F7F8"/>
<path opacity="0.6" d="M3.54797 21.1609C5.43343 27.6207 16.8966 27.2839 24.7614 23.2348C19.495 25.8664 7.03699 26.369 3.54797 21.1609Z" fill="#F7F7F8"/>
<path opacity="0.6" d="M26.4303 43.1802C21.1195 45.3848 23.2955 33.5644 25.8299 28.0244C23.9825 32.9486 22.4055 43.8037 27.1602 42.5921L26.8793 42.8573C26.7067 42.9879 26.5798 43.0787 26.4303 43.1802Z" fill="#F7F7F8"/>
</svg>
