<svg width="167" height="41" viewBox="0 0 167 41" fill="none" xmlns="http://www.w3.org/2000/svg">
<g clip-path="url(#clip0_51_62)">
<path d="M48.6307 28.7935H60.5827V25.1935H52.8787V11.6335H48.6307V28.7935Z" fill="#F7F7F8"/>
<path d="M67.6639 26.3937C65.9599 26.3937 65.0719 24.9057 65.0719 22.6737C65.0719 20.4417 65.9599 18.9297 67.6639 18.9297C69.3679 18.9297 70.2799 20.4417 70.2799 22.6737C70.2799 24.9057 69.3679 26.3937 67.6639 26.3937ZM67.6879 29.1777C71.6479 29.1777 74.2399 26.3697 74.2399 22.6737C74.2399 18.9777 71.6479 16.1697 67.6879 16.1697C63.7519 16.1697 61.1119 18.9777 61.1119 22.6737C61.1119 26.3697 63.7519 29.1777 67.6879 29.1777Z" fill="#F7F7F8"/>
<path d="M81.0943 33.0415C82.9183 33.0415 84.5263 32.6335 85.6063 31.6735C86.5903 30.7855 87.2383 29.4415 87.2383 27.5935V16.5055H83.4943V17.8255H83.4463C82.7263 16.7935 81.6223 16.1455 79.9903 16.1455C76.9423 16.1455 74.8303 18.6895 74.8303 22.2895C74.8303 26.0575 77.3983 28.1215 80.1583 28.1215C81.6463 28.1215 82.5823 27.5215 83.3023 26.7055H83.3983V27.9295C83.3983 29.4175 82.7023 30.2815 81.0463 30.2815C79.7503 30.2815 79.1023 29.7295 78.8863 29.0815H75.0943C75.4783 31.6495 77.7103 33.0415 81.0943 33.0415ZM81.0703 25.2175C79.6063 25.2175 78.6463 24.0175 78.6463 22.1695C78.6463 20.2975 79.6063 19.0975 81.0703 19.0975C82.7023 19.0975 83.5663 20.4895 83.5663 22.1455C83.5663 23.8735 82.7743 25.2175 81.0703 25.2175Z" fill="#F7F7F8"/>
<path d="M94.9366 26.3937C93.2326 26.3937 92.3447 24.9057 92.3447 22.6737C92.3447 20.4417 93.2326 18.9297 94.9366 18.9297C96.6406 18.9297 97.5526 20.4417 97.5526 22.6737C97.5526 24.9057 96.6406 26.3937 94.9366 26.3937ZM94.9606 29.1777C98.9206 29.1777 101.513 26.3697 101.513 22.6737C101.513 18.9777 98.9206 16.1697 94.9606 16.1697C91.0246 16.1697 88.3846 18.9777 88.3846 22.6737C88.3846 26.3697 91.0246 29.1777 94.9606 29.1777Z" fill="#F7F7F8"/>
<path d="M102.655 28.7935H106.567V16.5055H102.655V28.7935ZM102.655 14.8015H106.567V11.6335H102.655V14.8015Z" fill="#F7F7F8"/>
<path d="M108.264 32.8495H112.176V27.5215H112.224C112.992 28.5535 114.12 29.1775 115.704 29.1775C118.92 29.1775 121.056 26.6335 121.056 22.6495C121.056 18.9535 119.064 16.1455 115.8 16.1455C114.12 16.1455 112.92 16.8895 112.08 17.9935H112.008V16.5055H108.264V32.8495ZM114.696 26.1535C113.016 26.1535 112.056 24.7855 112.056 22.7935C112.056 20.8015 112.92 19.2895 114.624 19.2895C116.304 19.2895 117.096 20.6815 117.096 22.7935C117.096 24.8815 116.184 26.1535 114.696 26.1535Z" fill="#F7F7F8"/>
<path d="M127.426 29.1775C130.642 29.1775 133.018 27.7855 133.018 25.0975C133.018 21.9535 130.474 21.4015 128.314 21.0415C126.754 20.7535 125.362 20.6335 125.362 19.7695C125.362 19.0015 126.106 18.6415 127.066 18.6415C128.146 18.6415 128.89 18.9775 129.034 20.0815H132.634C132.442 17.6575 130.57 16.1455 127.09 16.1455C124.186 16.1455 121.786 17.4895 121.786 20.0815C121.786 22.9615 124.066 23.5375 126.202 23.8975C127.834 24.1855 129.322 24.3055 129.322 25.4095C129.322 26.2015 128.578 26.6335 127.402 26.6335C126.106 26.6335 125.29 26.0335 125.146 24.8095H121.45C121.57 27.5215 123.826 29.1775 127.426 29.1775Z" fill="#F7F7F8"/>
<path d="M138.331 29.1536C140.035 29.1536 141.115 28.4816 142.003 27.2816H142.075V28.7936H145.819V16.5056H141.907V23.3696C141.907 24.8336 141.091 25.8416 139.747 25.8416C138.499 25.8416 137.899 25.0976 137.899 23.7536V16.5056H134.011V24.5696C134.011 27.3056 135.499 29.1536 138.331 29.1536Z" fill="#F7F7F8"/>
<path d="M147.521 28.7935H151.433V21.9055C151.433 20.4415 152.153 19.4095 153.377 19.4095C154.553 19.4095 155.105 20.1775 155.105 21.4975V28.7935H159.017V21.9055C159.017 20.4415 159.713 19.4095 160.961 19.4095C162.137 19.4095 162.689 20.1775 162.689 21.4975V28.7935H166.601V20.8015C166.601 18.0415 165.209 16.1455 162.425 16.1455C160.841 16.1455 159.521 16.8175 158.561 18.3055H158.513C157.889 16.9855 156.665 16.1455 155.057 16.1455C153.281 16.1455 152.105 16.9855 151.337 18.2575H151.265V16.5055H147.521V28.7935Z" fill="#F7F7F8"/>
<path fill-rule="evenodd" clip-rule="evenodd" d="M8.65417 3.89157C7.22351 4.89193 5.92981 6.07468 4.80676 7.4061C9.39606 6.98003 15.2266 7.67575 21.9958 11.0604C29.2244 14.6746 35.0452 14.7968 39.0962 14.0154C38.7286 12.9025 38.2658 11.8329 37.7177 10.8161C33.0804 11.3052 27.1354 10.6578 20.207 7.19368C15.8074 4.99388 11.9292 4.08771 8.65417 3.89157ZM35.0088 6.96035C31.3467 2.8687 26.0248 0.293701 20.1014 0.293701C18.3619 0.293701 16.6741 0.515808 15.0651 0.933181C17.2443 1.52779 19.5593 2.39769 21.9958 3.61597C27.0684 6.15223 31.4478 6.96886 35.0088 6.96035ZM39.9623 17.9218C35.0683 18.8882 28.3102 18.6897 20.207 14.6381C12.6314 10.8503 6.60187 10.898 2.53534 11.8017C2.32544 11.8483 2.12048 11.8973 1.92047 11.9483C1.38806 13.1062 0.963074 14.3238 0.658142 15.5882C0.983826 15.5012 1.32037 15.4185 1.6676 15.3413C6.60101 14.245 13.5715 14.2926 21.9958 18.5048C29.5715 22.2926 35.601 22.2449 39.6676 21.3412C39.8069 21.3103 39.9442 21.2783 40.0792 21.2453C40.094 20.93 40.1014 20.6127 40.1014 20.2937C40.1014 19.4912 40.0542 18.6997 39.9623 17.9218ZM39.4262 25.466C34.5797 26.3133 28.0184 25.9881 20.207 22.0825C12.6314 18.2947 6.60187 18.3424 2.53534 19.2461C1.63269 19.4466 0.820679 19.6909 0.10437 19.9488C0.102417 20.0635 0.10144 20.1785 0.10144 20.2937C0.10144 31.3394 9.05573 40.2937 20.1014 40.2937C29.3585 40.2937 37.1467 34.0046 39.4262 25.466Z" fill="#F7F7F8"/>
</g>
<defs>
<clipPath id="clip0_51_62">
<rect width="167" height="41" fill="white"/>
</clipPath>
</defs>
</svg>
