<svg width="32" height="32" viewBox="0 0 32 32" fill="none" xmlns="http://www.w3.org/2000/svg">
<g clip-path="url(#clip0_51_38)">
<path d="M6.65253 25C6.65253 25 10 23 16 23C22 23 25.3475 25 25.3475 25L29.9725 10.8262C30.0063 10.7299 30.0104 10.6257 29.9845 10.5271C29.9585 10.4284 29.9036 10.3398 29.8268 10.2725C29.7501 10.2053 29.655 10.1626 29.5537 10.1499C29.4525 10.1372 29.3498 10.1551 29.2588 10.2012L22.58 13.5312C22.4644 13.5884 22.3315 13.6 22.2077 13.5639C22.0839 13.5278 21.9781 13.4466 21.9113 13.3362L16.44 4.24997C16.3943 4.17497 16.33 4.11299 16.2534 4.06998C16.1768 4.02698 16.0904 4.00439 16.0025 4.00439C15.9147 4.00439 15.8283 4.02698 15.7517 4.06998C15.6751 4.11299 15.6108 4.17497 15.565 4.24997L10.0888 13.34C10.0222 13.4509 9.91617 13.5325 9.79197 13.5687C9.66777 13.6048 9.5345 13.5928 9.41878 13.535L2.75003 10.2075C2.65897 10.1616 2.55629 10.1439 2.45514 10.1567C2.35398 10.1695 2.25894 10.2122 2.18217 10.2793C2.1054 10.3464 2.05039 10.4349 2.02418 10.5334C1.99797 10.632 2.00175 10.7361 2.03503 10.8325L6.65253 25Z" stroke="#F7F7F8" stroke-width="2" stroke-linecap="round" stroke-linejoin="round"/>
</g>
<defs>
<clipPath id="clip0_51_38">
<rect width="32" height="32" fill="white"/>
</clipPath>
</defs>
</svg>
