<svg width="150" height="57" viewBox="0 0 150 57" fill="none" xmlns="http://www.w3.org/2000/svg">
<path d="M30.5702 28.9045C30.5702 26.8236 31.8126 25.374 33.7113 25.374C35.61 25.374 36.8523 26.8236 36.8523 28.9045C36.8523 30.9621 35.61 32.435 33.7113 32.435C31.8126 32.435 30.5702 30.9621 30.5702 28.9045Z" fill="#F7F7F8"/>
<path d="M46.6278 25.2805C44.8229 25.2805 43.604 26.6833 43.604 28.6006C43.604 30.5412 44.8463 31.9908 46.6278 31.9908C48.5968 31.9908 49.9095 30.5178 49.9095 28.6006C49.9095 26.7067 48.5968 25.2805 46.6278 25.2805Z" fill="#F7F7F8"/>
<path d="M57.0911 28.9045C57.0911 26.8236 58.3335 25.374 60.2322 25.374C62.1309 25.374 63.3732 26.8236 63.3732 28.9045C63.3732 30.9621 62.1309 32.435 60.2322 32.435C58.3335 32.435 57.0911 30.9621 57.0911 28.9045Z" fill="#F7F7F8"/>
<path d="M76.1934 28.928C76.1934 26.8471 77.4592 25.3975 79.4516 25.3975C81.4441 25.3975 82.6395 26.8705 82.6395 28.928C82.6395 30.9855 81.4441 32.4351 79.4516 32.4351C77.4592 32.4351 76.1934 31.0089 76.1934 28.928Z" fill="#F7F7F8"/>
<path fill-rule="evenodd" clip-rule="evenodd" d="M75 53.3653C114.828 53.3653 147.115 42.0648 147.115 28.1249C147.115 14.185 114.828 2.88452 75 2.88452C35.1718 2.88452 2.88464 14.185 2.88464 28.1249C2.88464 42.0648 35.1718 53.3653 75 53.3653ZM25.9367 34.703V17.3076H23.0769V34.703H25.9367ZM27.687 28.9045C27.687 32.4584 30.078 34.9836 33.7113 34.9836C37.3446 34.9836 39.7355 32.4584 39.7355 28.9045C39.7355 25.3506 37.3446 22.8255 33.7113 22.8255C30.078 22.8255 27.687 25.3506 27.687 28.9045ZM46.1356 34.4692C42.8773 34.4692 40.6973 32.0376 40.6973 28.6707C40.6973 25.2805 42.9242 22.7787 46.2293 22.7787C47.9405 22.7787 49.3938 23.5036 50.097 24.7194L50.2611 23.1528H52.7927V34.1185C52.7927 37.9296 50.4018 40.3845 46.6513 40.3845C43.4633 40.3845 41.1427 38.4206 40.7677 35.4044H43.6509C43.8149 36.9242 45.0339 37.7893 46.8153 37.7893C48.8078 37.7893 50.0033 36.5267 50.0033 34.6328V32.6689C49.2766 33.7911 47.8233 34.4692 46.1356 34.4692ZM54.2079 28.9045C54.2079 32.4584 56.5989 34.9836 60.2322 34.9836C63.8655 34.9836 66.2564 32.4584 66.2564 28.9045C66.2564 25.3506 63.8655 22.8255 60.2322 22.8255C56.5989 22.8255 54.2079 25.3506 54.2079 28.9045ZM71.0625 19.0846C71.0625 20.0432 70.289 20.7914 69.3513 20.7914C68.3903 20.7914 67.6636 20.0432 67.6636 19.0846C67.6636 18.1493 68.3903 17.4011 69.3513 17.4011C70.289 17.4011 71.0625 18.1493 71.0625 19.0846ZM70.7812 23.1528V34.703H67.9215V23.1528H70.7812ZM73.2866 40.0572H76.0761V33.1131C76.8027 34.3055 78.3732 35.0069 80.1079 35.0069C83.5302 35.0069 85.5695 32.3883 85.5226 28.7876C85.4523 25.1636 83.3661 22.8021 80.0844 22.8021C78.3264 22.8021 76.7324 23.5737 76.0292 24.9064L75.8651 23.1528H73.2866V40.0572ZM90.89 35.0069C88.124 35.0069 86.3425 33.5339 86.2488 31.2426H88.8507C88.8507 32.248 89.5773 32.8325 90.8431 32.8325C91.898 32.8325 92.7653 32.4117 92.7653 31.4998C92.7653 30.8451 92.2964 30.4944 91.5463 30.284L89.5305 29.7696C87.3036 29.1851 86.4363 27.9459 86.4363 26.4495C86.4363 24.2517 88.2881 22.8021 90.7728 22.8021C93.2809 22.8021 94.9921 24.2517 95.0859 26.5431H92.484C92.484 25.5377 91.7807 24.9298 90.7025 24.9298C89.6711 24.9298 89.0382 25.4909 89.0382 26.2859C89.0382 27.0341 89.6242 27.338 90.4915 27.5718L92.5309 28.0628C94.4296 28.5304 95.4609 29.6527 95.4609 31.3128C95.4609 33.5573 93.6091 35.0069 90.89 35.0069ZM101.393 35.0069C102.963 35.0069 104.463 34.2821 105.143 33.2066L105.331 34.703H108.003V23.1528H105.143V29.2085C105.143 31.2894 104.346 32.4584 102.471 32.4584C101.018 32.4584 100.01 31.757 100.01 29.3722V23.1528H97.1499V30.3775C97.1499 33.1365 98.6501 35.0069 101.393 35.0069ZM113.387 28.0628V34.703H110.527V23.1528H113.152L113.293 24.4622C113.973 23.4334 115.192 22.8021 116.551 22.8021C118.473 22.8021 119.739 23.6438 120.372 24.9999C120.935 23.6438 122.318 22.8021 124.076 22.8021C126.889 22.8021 128.365 24.4856 128.365 27.151V34.703H125.599V27.8056C125.599 26.169 124.709 25.3039 123.326 25.3039C121.966 25.3039 120.888 26.1924 120.888 28.0862V34.703H118.098V27.8056C118.098 26.169 117.208 25.3039 115.848 25.3039C114.489 25.3039 113.387 26.1924 113.387 28.0628Z" fill="#F7F7F8"/>
</svg>
